<svg width="30" height="30" viewBox="0 0 30 30" fill="none" xmlns="http://www.w3.org/2000/svg">
<path d="M7.92874 3.29153V0.501534C7.92874 0.0515345 7.38874 -0.168466 7.07874 0.151534L3.28874 3.94153C3.08874 4.14153 3.08874 4.45153 3.28874 4.65153L7.07874 8.44153C7.38874 8.75153 7.92874 8.53153 7.92874 8.09153V5.29153C11.6587 5.29153 14.6087 8.71153 13.7887 12.5815C13.3187 14.8515 11.4787 16.6815 9.21874 17.1515C5.64874 17.9015 2.46874 15.4515 1.98874 12.1415C1.92874 11.6615 1.50874 11.2915 1.00874 11.2915C0.408739 11.2915 -0.0712609 11.8215 0.00873911 12.4215C0.628739 16.8115 4.80874 20.0615 9.53874 19.1415C12.6587 18.5315 15.1687 16.0215 15.7787 12.9015C16.7687 7.77153 12.8787 3.29153 7.92874 3.29153Z" transform="translate(7.06126 4.7085)" fill="black" fill-opacity="0.72"/>
<path d="M1.86 4.27H1.01V1.01L-2.67029e-07 1.32V0.63L1.77 -4.57764e-07H1.86V4.27Z" transform="translate(12.03 14.73)" fill="black" fill-opacity="0.72"/>
<path d="M2.89 2.56C2.89 2.88 2.86 3.16 2.79 3.38C2.72 3.6 2.62 3.8 2.5 3.95C2.38 4.1 2.22 4.21 2.05 4.28C1.88 4.35 1.68 4.38 1.46 4.38C1.24 4.38 1.05 4.35 0.87 4.28C0.69 4.21 0.54 4.1 0.41 3.95C0.28 3.8 0.18 3.61 0.11 3.38C0.0400003 3.15 -2.67029e-07 2.88 -2.67029e-07 2.56V1.82C-2.67029e-07 1.5 0.0300001 1.22 0.1 1C0.17 0.78 0.27 0.58 0.39 0.43C0.51 0.28 0.67 0.17 0.84 0.0999997C1.01 0.0299997 1.21 3.05176e-07 1.43 3.05176e-07C1.65 3.05176e-07 1.84 0.0299997 2.02 0.0999997C2.2 0.17 2.35 0.28 2.48 0.43C2.61 0.58 2.71 0.77 2.78 1C2.85 1.23 2.89 1.5 2.89 1.82V2.56ZM2.04 1.7C2.04 1.51 2.03 1.35 2 1.22C1.97 1.09 1.93 0.99 1.88 0.91C1.83 0.83 1.77 0.77 1.69 0.74C1.61 0.71 1.53 0.69 1.44 0.69C1.35 0.69 1.26 0.71 1.19 0.74C1.12 0.77 1.05 0.83 1 0.91C0.95 0.99 0.91 1.09 0.88 1.22C0.85 1.35 0.84 1.51 0.84 1.7V2.67C0.84 2.86 0.85 3.02 0.88 3.15C0.91 3.28 0.95 3.39 1 3.47C1.05 3.55 1.11 3.61 1.19 3.64C1.27 3.67 1.35 3.69 1.44 3.69C1.53 3.69 1.62 3.67 1.69 3.64C1.76 3.61 1.83 3.55 1.88 3.47C1.93 3.39 1.97 3.28 1.99 3.15C2.01 3.02 2.03 2.86 2.03 2.67V1.7H2.04Z" transform="translate(15.28 14.6801)" fill="black" fill-opacity="0.72"/>
</svg>
