<svg width="30" height="30" viewBox="0 0 30 30" fill="none" xmlns="http://www.w3.org/2000/svg">
<path d="M14.9174 11.2946C14.4174 11.2946 14.0074 11.6646 13.9374 12.1546C13.4574 15.5246 10.1674 17.9946 6.51743 17.1146C4.26743 16.5746 2.60743 14.8446 2.12743 12.5846C1.31743 8.71462 4.26743 5.29462 7.99743 5.29462V8.08462C7.99743 8.53462 8.53743 8.75462 8.84743 8.43462L12.6374 4.64462C12.8374 4.44462 12.8374 4.13462 12.6374 3.93462L8.84743 0.144618C8.53743 -0.165382 7.99743 0.0546184 7.99743 0.504618V3.29462C3.05743 3.29462 -0.842569 7.77462 0.157431 12.8946C0.757432 16.0046 3.05743 18.3946 6.14743 19.0846C10.9774 20.1646 15.2974 16.8846 15.9174 12.4146C16.0074 11.8246 15.5174 11.2946 14.9174 11.2946Z" transform="translate(7.00255 4.70532)" fill="black" fill-opacity="0.72"/>
<path d="M1.86 4.27V-4.57764e-07H1.77L-3.8147e-08 0.63V1.32L1.01 1.01V4.27H1.86Z" transform="translate(12.04 14.73)" fill="black" fill-opacity="0.72"/>
<path d="M2.02 0.0999997C1.84 0.0299997 1.65 3.05176e-07 1.43 3.05176e-07C1.21 3.05176e-07 1.02 0.0299997 0.84 0.0999997C0.66 0.17 0.51 0.28 0.39 0.43C0.27 0.58 0.16 0.77 0.0999996 1C0.0399996 1.23 1.90735e-07 1.5 1.90735e-07 1.82V2.56C1.90735e-07 2.88 0.0399999 3.16 0.11 3.38C0.18 3.6 0.28 3.8 0.41 3.95C0.54 4.1 0.69 4.21 0.87 4.28C1.05 4.35 1.24 4.38 1.46 4.38C1.68 4.38 1.87 4.35 2.05 4.28C2.23 4.21 2.38 4.1 2.5 3.95C2.62 3.8 2.72 3.61 2.79 3.38C2.86 3.15 2.89 2.88 2.89 2.56V1.82C2.89 1.5 2.85 1.22 2.78 1C2.71 0.78 2.61 0.58 2.48 0.43C2.35 0.28 2.19 0.17 2.02 0.0999997ZM2.03 2.67C2.03 2.86 2.02 3.02 1.99 3.15C1.96 3.28 1.93 3.39 1.88 3.47C1.83 3.55 1.77 3.61 1.69 3.64C1.61 3.67 1.53 3.69 1.44 3.69C1.35 3.69 1.26 3.67 1.19 3.64C1.12 3.61 1.05 3.55 1 3.47C0.95 3.39 0.91 3.28 0.88 3.15C0.85 3.02 0.84 2.86 0.84 2.67V1.7C0.84 1.51 0.85 1.35 0.88 1.22C0.91 1.09 0.94 0.99 1 0.91C1.06 0.83 1.11 0.77 1.19 0.74C1.27 0.71 1.35 0.69 1.44 0.69C1.53 0.69 1.62 0.71 1.69 0.74C1.76 0.77 1.83 0.83 1.88 0.91C1.93 0.99 1.97 1.09 2 1.22C2.03 1.35 2.04 1.51 2.04 1.7V2.67H2.03Z" transform="translate(15.3 14.6799)" fill="black" fill-opacity="0.72"/>
</svg>
